# 3ds Max Wavefront OBJ Exporter v0.97b - (c)2007 guruware
# File Created: 31.03.2022 16:47:25

mtllib miCubito.mtl

#
# object Box001
#

v  12.4103 0.1834 8.6173
v  4.5236 0.0178 -10.6646
v  21.4842 2.6250 -8.2517
v  27.3079 0.4094 8.0135
v  3.8621 10.3605 8.5246
v  23.5771 7.4130 8.7238
v  18.0279 9.9073 -8.8790
v  -4.0095 10.1740 -12.4743
# 8 vertices

vn 0.0790 -0.9917 -0.1011
vn 0.1596 -0.9855 -0.0568
vn 0.0987 -0.9910 -0.0903
vn 0.0094 -0.9903 -0.1383
vn 0.0759 0.9965 0.0358
vn 0.1463 0.9848 0.0934
vn 0.0790 0.9961 0.0384
vn 0.0144 0.9998 -0.0143
vn 0.0028 -0.0191 0.9998
vn 0.0416 -0.0789 0.9960
vn 0.0247 -0.0529 0.9983
vn -0.0100 0.0007 0.9999
vn 0.8631 0.4556 -0.2180
vn 0.8805 0.3954 -0.2614
vn 0.8740 0.4202 -0.2439
vn 0.8557 0.4763 -0.2023
vn 0.1567 -0.0233 -0.9874
vn 0.1484 -0.0513 -0.9876
vn 0.1524 -0.0377 -0.9876
vn 0.1609 -0.0086 -0.9869
vn -0.7490 -0.5936 0.2941
vn -0.7308 -0.6111 0.3042
vn -0.7401 -0.6023 0.2991
vn -0.7577 -0.5851 0.2892
# 24 vertex normals

vt 1.0000 0.0000 0.0000
vt 1.0000 1.0000 0.0000
vt 0.0000 1.0000 0.0000
vt 0.0000 0.0000 0.0000
# 4 texture coords

o Box001
g Box001
usemtl Material__174
s 2
f 1/1/1 2/2/2 3/3/3 
f 3/3/3 4/4/4 1/1/1 
usemtl Material__51
s 4
f 5/4/5 6/1/6 7/2/7 
f 7/2/7 8/3/8 5/4/5 
usemtl Material__174
s 8
f 1/4/9 4/1/10 6/2/11 
f 6/2/11 5/3/12 1/4/9 
usemtl Material__51
s 16
f 4/4/13 3/1/14 7/2/15 
f 7/2/15 6/3/16 4/4/13 
usemtl Material__174
s 32
f 3/4/17 2/1/18 8/2/19 
f 8/2/19 7/3/20 3/4/17 
s 64
f 2/4/21 1/1/22 5/2/23 
f 5/2/23 8/3/24 2/4/21 
# 12 faces

